<svg width="512" height="512" viewBox="0 0 512 512" fill="none" xmlns="http://www.w3.org/2000/svg">
  <rect width="512" height="512" rx="100" fill="#0f172a"/>
  <rect x="20" y="20" width="472" height="472" rx="90" fill="url(#gradient)"/>
  <path d="M150 192C150 181.507 158.507 173 169 173H279C289.493 173 298 181.507 298 192V235H342C352.493 235 361 243.507 361 254V320C361 330.493 352.493 339 342 339H232C221.507 339 213 330.493 213 320V277H169C158.507 277 150 268.493 150 258V192Z" fill="white" fill-opacity="0.9"/>
  <circle cx="224" cy="224" r="22" fill="#14b8a6"/>
  <circle cx="288" cy="288" r="22" fill="#14b8a6"/>
  <defs>
    <linearGradient id="gradient" x1="20" y1="20" x2="492" y2="492" gradientUnits="userSpaceOnUse">
      <stop stop-color="#14b8a6"/>
      <stop offset="1" stop-color="#0d9488"/>
    </linearGradient>
  </defs>
</svg>
